name rise30.6535peak61.5555fall82.9339.mot
datacolumns 19
datarows 27
range 9.18998100000000 9.23329800000000
endheader
time	ground_force1_vx	ground_force1_vy	ground_force1_vz	ground_force1_px	ground_force1_py	ground_force1_pz	ground_force2_vx	ground_force2_vy	ground_force2_vz	ground_force2_px	ground_force2_py	ground_force2_pz	ground_torque1_x	ground_torque1_y	ground_torque1_z	ground_torque2_x	ground_torque2_y	ground_torque2_z	
9.18998100000000	57.10672400000000	769.53404499999999	58.51494200000000	0.30871100000000	0.00000000000000	0.11010800000000	0.00000000000000	0.00000000000000	0.00000000000000	0.00000000000000	0.00000000000000	0.00000000000000	0.00000000000000	23.13481200000000	0.00000000000000	0.00000000000000	0.00000000000000	0.00000000000000	
9.19162900000000	56.18704700000000	770.47695799999997	58.57103500000000	0.30752500000000	0.00000000000000	0.11013400000000	0.00000000000000	0.00000000000000	0.00000000000000	0.00000000000000	0.00000000000000	0.00000000000000	0.00000000000000	23.19694100000000	0.00000000000000	0.00000000000000	0.00000000000000	0.00000000000000	
9.19329300000000	55.27982100000000	771.31089699999995	58.62411200000000	0.30636800000000	0.00000000000000	0.11015900000000	0.00000000000000	0.00000000000000	0.00000000000000	0.00000000000000	0.00000000000000	0.00000000000000	0.00000000000000	23.25722500000000	0.00000000000000	0.00000000000000	0.00000000000000	0.00000000000000	
9.19496800000000	54.38580600000000	772.03743099999997	58.67399900000000	0.30524100000000	0.00000000000000	0.11018300000000	0.00000000000000	0.00000000000000	0.00000000000000	0.00000000000000	0.00000000000000	0.00000000000000	0.00000000000000	23.31546700000000	0.00000000000000	0.00000000000000	0.00000000000000	0.00000000000000	
9.19663100000000	53.50566000000000	772.65822200000002	58.72047000000000	0.30414000000000	0.00000000000000	0.11020700000000	0.00000000000000	0.00000000000000	0.00000000000000	0.00000000000000	0.00000000000000	0.00000000000000	0.00000000000000	23.37144600000000	0.00000000000000	0.00000000000000	0.00000000000000	0.00000000000000	
9.19829200000000	52.63994600000000	773.17503199999999	58.76324800000000	0.30306700000000	0.00000000000000	0.11023100000000	0.00000000000000	0.00000000000000	0.00000000000000	0.00000000000000	0.00000000000000	0.00000000000000	0.00000000000000	23.42491900000000	0.00000000000000	0.00000000000000	0.00000000000000	0.00000000000000	
9.19995700000000	51.78912700000000	773.58972300000005	58.80201500000000	0.30202000000000	0.00000000000000	0.11025300000000	0.00000000000000	0.00000000000000	0.00000000000000	0.00000000000000	0.00000000000000	0.00000000000000	0.00000000000000	23.47562700000000	0.00000000000000	0.00000000000000	0.00000000000000	0.00000000000000	
9.20162800000000	50.95357600000000	773.90426000000002	58.83641300000000	0.30099700000000	0.00000000000000	0.11027500000000	0.00000000000000	0.00000000000000	0.00000000000000	0.00000000000000	0.00000000000000	0.00000000000000	0.00000000000000	23.52329200000000	0.00000000000000	0.00000000000000	0.00000000000000	0.00000000000000	
9.20329500000000	50.13357500000000	774.12071500000002	58.86605000000000	0.29999700000000	0.00000000000000	0.11029700000000	0.00000000000000	0.00000000000000	0.00000000000000	0.00000000000000	0.00000000000000	0.00000000000000	0.00000000000000	23.56762600000000	0.00000000000000	0.00000000000000	0.00000000000000	0.00000000000000	
9.20497200000000	49.32932200000000	774.24126699999999	58.89050900000000	0.29901900000000	0.00000000000000	0.11031800000000	0.00000000000000	0.00000000000000	0.00000000000000	0.00000000000000	0.00000000000000	0.00000000000000	0.00000000000000	23.60833100000000	0.00000000000000	0.00000000000000	0.00000000000000	0.00000000000000	
9.20663600000000	48.54093400000000	774.26819999999998	58.90934700000000	0.29806100000000	0.00000000000000	0.11033800000000	0.00000000000000	0.00000000000000	0.00000000000000	0.00000000000000	0.00000000000000	0.00000000000000	0.00000000000000	23.64510200000000	0.00000000000000	0.00000000000000	0.00000000000000	0.00000000000000	
9.20829100000000	47.76844900000000	774.20390899999995	58.92210500000000	0.29712200000000	0.00000000000000	0.11035800000000	0.00000000000000	0.00000000000000	0.00000000000000	0.00000000000000	0.00000000000000	0.00000000000000	0.00000000000000	23.67763100000000	0.00000000000000	0.00000000000000	0.00000000000000	0.00000000000000	
9.20995800000000	47.01183400000000	774.05089299999997	58.92831300000000	0.29619900000000	0.00000000000000	0.11037700000000	0.00000000000000	0.00000000000000	0.00000000000000	0.00000000000000	0.00000000000000	0.00000000000000	0.00000000000000	23.70560900000000	0.00000000000000	0.00000000000000	0.00000000000000	0.00000000000000	
9.21162400000000	46.27098800000000	773.81175399999995	58.92749400000000	0.29529200000000	0.00000000000000	0.11039500000000	0.00000000000000	0.00000000000000	0.00000000000000	0.00000000000000	0.00000000000000	0.00000000000000	0.00000000000000	23.72873100000000	0.00000000000000	0.00000000000000	0.00000000000000	0.00000000000000	
9.21329600000000	45.54574800000000	773.48919999999998	58.91917000000000	0.29439900000000	0.00000000000000	0.11041300000000	0.00000000000000	0.00000000000000	0.00000000000000	0.00000000000000	0.00000000000000	0.00000000000000	0.00000000000000	23.74669500000000	0.00000000000000	0.00000000000000	0.00000000000000	0.00000000000000	
9.21497100000000	44.83589200000000	773.08603600000004	58.90287100000000	0.29351700000000	0.00000000000000	0.11043100000000	0.00000000000000	0.00000000000000	0.00000000000000	0.00000000000000	0.00000000000000	0.00000000000000	0.00000000000000	23.75921000000000	0.00000000000000	0.00000000000000	0.00000000000000	0.00000000000000	
9.21663900000000	44.14114400000000	772.60516099999995	58.87813300000000	0.29264500000000	0.00000000000000	0.11044800000000	0.00000000000000	0.00000000000000	0.00000000000000	0.00000000000000	0.00000000000000	0.00000000000000	0.00000000000000	23.76599500000000	0.00000000000000	0.00000000000000	0.00000000000000	0.00000000000000	
9.21829800000000	43.46118100000000	772.04956700000002	58.84450900000000	0.29178100000000	0.00000000000000	0.11046400000000	0.00000000000000	0.00000000000000	0.00000000000000	0.00000000000000	0.00000000000000	0.00000000000000	0.00000000000000	23.76678200000000	0.00000000000000	0.00000000000000	0.00000000000000	0.00000000000000	
9.21997300000000	42.79563600000000	771.42233299999998	58.80157300000000	0.29092400000000	0.00000000000000	0.11048000000000	0.00000000000000	0.00000000000000	0.00000000000000	0.00000000000000	0.00000000000000	0.00000000000000	0.00000000000000	23.76132100000000	0.00000000000000	0.00000000000000	0.00000000000000	0.00000000000000	
9.22162600000000	42.14410600000000	770.72661400000004	58.74892100000000	0.29007100000000	0.00000000000000	0.11049500000000	0.00000000000000	0.00000000000000	0.00000000000000	0.00000000000000	0.00000000000000	0.00000000000000	0.00000000000000	23.74937900000000	0.00000000000000	0.00000000000000	0.00000000000000	0.00000000000000	
9.22330000000000	41.50615200000000	769.96564200000000	58.68618100000000	0.28922000000000	0.00000000000000	0.11050900000000	0.00000000000000	0.00000000000000	0.00000000000000	0.00000000000000	0.00000000000000	0.00000000000000	0.00000000000000	23.73074600000000	0.00000000000000	0.00000000000000	0.00000000000000	0.00000000000000	
9.22497000000000	40.88130900000000	769.14271499999995	58.61301100000000	0.28837000000000	0.00000000000000	0.11052300000000	0.00000000000000	0.00000000000000	0.00000000000000	0.00000000000000	0.00000000000000	0.00000000000000	0.00000000000000	23.70523400000000	0.00000000000000	0.00000000000000	0.00000000000000	0.00000000000000	
9.22662400000000	40.26908800000000	768.26119200000005	58.52910900000000	0.28751900000000	0.00000000000000	0.11053600000000	0.00000000000000	0.00000000000000	0.00000000000000	0.00000000000000	0.00000000000000	0.00000000000000	0.00000000000000	23.67268100000000	0.00000000000000	0.00000000000000	0.00000000000000	0.00000000000000	
9.22829000000000	39.66897900000000	767.32447999999999	58.43421100000000	0.28666600000000	0.00000000000000	0.11054900000000	0.00000000000000	0.00000000000000	0.00000000000000	0.00000000000000	0.00000000000000	0.00000000000000	0.00000000000000	23.63295200000000	0.00000000000000	0.00000000000000	0.00000000000000	0.00000000000000	
9.22996900000000	39.08046000000000	766.33603500000004	58.32809700000000	0.28580800000000	0.00000000000000	0.11056100000000	0.00000000000000	0.00000000000000	0.00000000000000	0.00000000000000	0.00000000000000	0.00000000000000	0.00000000000000	23.58593900000000	0.00000000000000	0.00000000000000	0.00000000000000	0.00000000000000	
9.23162400000000	38.50299900000000	765.29934300000002	58.21059200000000	0.28494400000000	0.00000000000000	0.11057300000000	0.00000000000000	0.00000000000000	0.00000000000000	0.00000000000000	0.00000000000000	0.00000000000000	0.00000000000000	23.53156600000000	0.00000000000000	0.00000000000000	0.00000000000000	0.00000000000000	
9.23329800000000	37.93605600000000	764.21792000000005	58.08157100000000	0.28407300000000	0.00000000000000	0.11058400000000	0.00000000000000	0.00000000000000	0.00000000000000	0.00000000000000	0.00000000000000	0.00000000000000	0.00000000000000	23.46978600000000	0.00000000000000	0.00000000000000	0.00000000000000	0.00000000000000	
